<?xml version="1.0" encoding="utf-8"?>
<!-- Generator: Adobe Illustrator 22.1.0, SVG Export Plug-In . SVG Version: 6.00 Build 0)  -->
<svg version="1.1" id="Layer_1" xmlns="http://www.w3.org/2000/svg" xmlns:xlink="http://www.w3.org/1999/xlink" x="0px" y="0px"
	 viewBox="0 0 273.1 14.2" style="enable-background:new 0 0 273.1 14.2;" xml:space="preserve">
<style type="text/css">
	.st0{fill:#BCBEC0;}
</style>
<g>
	<g>
		<path class="st0" d="M0,14V0.2h4c4.8,0,7.6,2.7,7.6,6.9c0,4.2-2.8,6.9-7.6,6.9H0z M3.9,1.2H1.5V13h2.4c3.9,0,6-2.3,6-5.9
			C9.9,3.5,7.8,1.2,3.9,1.2z"/>
		<path class="st0" d="M26.5,0.2v8.6c0,3.6-2.4,5.4-5.4,5.4c-3.9,0-5.7-2.2-5.7-5.5V0.2H17v8.3c0,3,1.7,4.5,4.2,4.5
			c2.5,0,4.1-1.4,4.1-4.5V0.2H26.5z"/>
		<path class="st0" d="M37.3,0c2.3,0,4.2,0.9,5.5,3.3l-0.9,0.8c-0.9-1.8-2.2-3-4.6-3c-2.9,0-5.2,2.2-5.2,6c0,3.9,2.5,5.9,5.2,5.9
			c2.2,0,3.6-1,4.6-3.1l0.9,0.6c-1.3,2.6-3.2,3.6-5.6,3.6c-3.8,0-6.9-2.9-6.9-7C30.4,3,33.4,0,37.3,0z"/>
		<path class="st0" d="M46.8,0.2h1.5v6.2h8.6V0.2h1.5V14h-1.5V7.4h-8.6V14h-1.5V0.2z"/>
		<path class="st0" d="M63.8,0.2h9.3v1h-7.7v5.1h5.8v1h-5.8V13h8v1h-9.5V0.2z"/>
		<path class="st0" d="M82.4,7.8l-1.9-0.5c-2.3-0.6-3.7-1.5-3.7-3.6c0-2.2,2-3.7,4.7-3.7c2.2,0,4.1,1.1,4.9,2.5l-0.9,0.8
			c-0.8-1.4-2.2-2.3-4-2.3c-1.9,0-3.2,0.9-3.2,2.4c0,1.5,0.9,2,2.7,2.5l1.8,0.5C85.1,7,86.5,8,86.5,10c0,2.7-2.4,4.2-5,4.2
			c-2.4,0-4.6-1.2-5.5-3l0.9-0.7c1.1,1.9,2.9,2.6,4.6,2.6c2,0,3.5-0.9,3.5-2.7C85,8.9,84,8.2,82.4,7.8z"/>
		<path class="st0" d="M100.9,0.2h1.2v13.9h-0.6L92.1,2.2V14h-1.2V0.2h1.4l8.6,10.8V0.2z"/>
		<path class="st0" d="M107.5,0.2h9.3v1H109v5.1h5.8v1H109V13h8v1h-9.5V0.2z"/>
		<path class="st0" d="M135.5,12.3c-1.1,1.1-2.6,1.9-4.3,1.9c-2.5,0-4.5-1.4-4.5-3.8c0-1.6,1.2-3,3.1-3.8l-0.5-0.5
			c-0.8-0.8-1.3-1.8-1.3-2.9c0-2,1.6-3.2,3.6-3.2c2.2,0,3.5,1.3,3.5,3c0,1.7-1.3,3.1-3.1,3.7l3.6,3.6c0.8-1.2,1.3-2.7,1.4-4l1.2,0.2
			c-0.1,1.4-0.8,3.2-1.8,4.6l2.8,2.9h-2.1L135.5,12.3z M134.7,11.5l-4.2-4.3c-1.4,0.6-2.2,1.5-2.2,3.1c0,1.8,1.4,2.7,3.1,2.7
			C132.7,13.1,133.8,12.4,134.7,11.5z M131.4,6c1.4-0.6,2.6-1.4,2.6-3c0-1.1-0.8-2.1-2.3-2.1c-1.5,0-2.2,0.9-2.2,2
			c0,0.8,0.3,1.4,1.1,2.2L131.4,6z"/>
		<path class="st0" d="M157.3,9.4h-5.9l-1.9,4.6h-1.2l5.9-13.9h0.8l5.9,13.9h-1.7L157.3,9.4z M151.8,8.4h5l-2.5-6.1L151.8,8.4z"/>
		<path class="st0" d="M169.5,7.8l-1.9-0.5c-2.3-0.6-3.7-1.5-3.7-3.6c0-2.2,2-3.7,4.7-3.7c2.2,0,4.1,1.1,4.9,2.5l-0.9,0.8
			c-0.8-1.4-2.2-2.3-4-2.3c-1.9,0-3.2,0.9-3.2,2.4c0,1.5,0.9,2,2.7,2.5l1.8,0.5c2.3,0.6,3.7,1.6,3.7,3.6c0,2.7-2.4,4.2-5,4.2
			c-2.4,0-4.6-1.2-5.5-3l0.9-0.7c1.1,1.9,2.9,2.6,4.6,2.6c2,0,3.5-0.9,3.5-2.7C172.2,8.9,171.1,8.2,169.5,7.8z"/>
		<path class="st0" d="M183.6,0c3.9,0,6.8,3.2,6.8,7.1c0,3.9-2.8,7.1-6.8,7.1s-6.8-3.2-6.8-7.1C176.8,3.2,179.6,0,183.6,0z
			 M183.6,13.2c3,0,5-2.4,5-6.1c0-3.7-2-6.1-5-6.1s-5,2.4-5,6.1C178.5,10.8,180.5,13.2,183.6,13.2z"/>
		<path class="st0" d="M200.3,0c2.3,0,4.2,0.9,5.5,3.3l-0.9,0.8c-0.9-1.8-2.2-3-4.6-3c-2.9,0-5.2,2.2-5.2,6c0,3.9,2.5,5.9,5.2,5.9
			c2.2,0,3.6-1,4.6-3.1l0.9,0.6c-1.3,2.6-3.2,3.6-5.6,3.6c-3.8,0-6.9-2.9-6.9-7C193.4,3,196.5,0,200.3,0z"/>
		<path class="st0" d="M211.4,14h-1.5V0.2h1.5V14z"/>
		<path class="st0" d="M224.4,9.4h-5.9l-1.9,4.6h-1.2l5.9-13.9h0.8l5.9,13.9h-1.7L224.4,9.4z M218.9,8.4h5l-2.5-6.1L218.9,8.4z"/>
		<path class="st0" d="M231.9,14V0.2h4c4.8,0,7.6,2.7,7.6,6.9c0,4.2-2.8,6.9-7.6,6.9H231.9z M235.8,1.2h-2.3V13h2.4
			c3.9,0,6-2.3,6-5.9C241.8,3.5,239.7,1.2,235.8,1.2z"/>
		<path class="st0" d="M253.4,0c3.9,0,6.8,3.2,6.8,7.1c0,3.9-2.8,7.1-6.8,7.1s-6.8-3.2-6.8-7.1C246.6,3.2,249.5,0,253.4,0z
			 M253.4,13.2c3,0,5-2.4,5-6.1c0-3.7-2-6.1-5-6.1c-3,0-5,2.4-5,6.1C248.3,10.8,250.3,13.2,253.4,13.2z"/>
		<path class="st0" d="M269,7.8l-1.9-0.5c-2.3-0.6-3.7-1.5-3.7-3.6c0-2.2,2-3.7,4.7-3.7c2.2,0,4.1,1.1,4.9,2.5L272,3.3
			c-0.8-1.4-2.2-2.3-4-2.3c-1.9,0-3.2,0.9-3.2,2.4c0,1.5,0.9,2,2.7,2.5l1.8,0.5c2.3,0.6,3.7,1.6,3.7,3.6c0,2.7-2.4,4.2-5,4.2
			c-2.4,0-4.6-1.2-5.5-3l0.9-0.7c1.1,1.9,2.9,2.6,4.6,2.6c2,0,3.5-0.9,3.5-2.7C271.6,8.9,270.5,8.2,269,7.8z"/>
	</g>
</g>
</svg>
